<?xml version="1.0" encoding="UTF-8"?>
<svg id="Camada_1" data-name="Camada 1" xmlns="http://www.w3.org/2000/svg" viewBox="0 0 1089 213.46">
  <defs>
    <style>
      .cls-1 {
        fill: blue;
      }

      .cls-2 {
        fill: #575c5a;
      }
    </style>
  </defs>
  <g>
    <path class="cls-1" d="M108.68,90.99c-8.34,11.92-15.62,24.56-21.74,37.76-2.88,6.21-5.53,12.56-7.89,19.03.31.05.61.09.92.13,8.2,1.14,16.46,1.75,24.74,1.84,4.95-12.7,11.16-24.87,18.53-36.33,1.07-1.66,2.16-3.3,3.27-4.92,9.91-14.48,21.63-27.64,34.87-39.14.24-.21.49-.41.73-.62,6.48-5.58,13.31-10.74,20.44-15.46-.2-.24-.38-.5-.57-.74-5.11-6.3-10.52-12.34-16.23-18.11-.34-.35-.66-.72-1.01-1.07-6.92,5.11-13.57,10.58-19.92,16.38-.88.8-1.72,1.65-2.57,2.46-4.99,4.55-9.74,9.36-14.22,14.41-5.8,6.44-11.27,13.16-16.38,20.16-1.01,1.4-1.98,2.82-2.97,4.22"/>
    <path class="cls-1" d="M100.97,73.33c2.35,2.6,5.3,6.11,7.51,8.83,5.07-6.78,10.53-13.26,16.36-19.4-2.16-2.6-5.04-5.98-7.3-8.48-.31-.35-.63-.7-.94-1.05-6.21,7.15-11.77,14.44-15.78,19.95l.14.15Z"/>
    <path class="cls-1" d="M108.37,154.97c-.48,0-.96.02-1.43.02-1.39,0-2.77-.02-4.15-.05-8.13-.17-16.24-.83-24.29-1.98-1.84-.26-3.66-.55-5.48-.86-3.1-.53-6.18-1.13-9.23-1.81-1.8-.39-4.58-.81-6.36-1.26.21-.84,1.15-4.4,1.39-5.26,3.62-11.91,8.24-23.49,13.81-34.61,5.94-12.56,13.08-24.51,21.33-35.69.22-.29.45-.6.67-.9,4.22-5.93,10.8-14.72,18.31-23.3-5.33-5.6-10.87-10.99-16.72-16.06-5.96,5.96-11.61,12.22-16.94,18.76-.09.11-.18.23-.27.34-1.11,1.36-2.2,2.74-3.28,4.12-18.48,23.73-32.47,50.64-41.29,79.39-.44,1.43-.88,2.87-1.3,4.32-.07.23-.12.46-.19.69-2.31,8.15-4.19,16.41-5.65,24.75,8.21,2.48,16.54,4.53,24.96,6.15.59.11,1.19.2,1.78.31,1.8.33,3.61.64,5.43.94,2.86.46,5.74.87,8.64,1.24.95.12,1.89.27,2.84.38.88.1,1.76.18,2.64.27,7.53.78,15.16,1.24,22.86,1.34h.52c.88.01,1.75.04,2.63.04.75,0,1.5-.02,2.26-.03,14.39-.12,28.75-1.48,42.91-4.06-1.31-6.71-2.96-13.35-4.95-19.89-10.4,1.72-20.92,2.62-31.46,2.7"/>
    <path class="cls-1" d="M167.7,140.1c-.05-.14-.09-.29-.14-.43-5.55-16.52-12.87-32.39-21.83-47.33-5.92,6.73-11.38,13.85-16.35,21.31,5.63,10.47,10.33,21.41,14.05,32.69.55,1.65,1.07,3.32,1.58,4.99,1.97,6.52,3.61,13.14,4.91,19.82l.09-.02c8.26-1.7,16.43-3.82,24.47-6.34-1.46-6.69-3.19-13.27-5.2-19.74-.51-1.67-1.04-3.32-1.58-4.97"/>
    <path class="cls-1" d="M226.3,135.59c-1.68-5.44-3.58-10.78-5.61-16.06-.51-1.32-.97-2.65-1.5-3.95-.14-.35-.29-.68-.44-1.03-8.39-20.42-19.47-39.63-32.95-57.12-7.14,4.71-13.97,9.87-20.45,15.45,12.98,16.78,23.48,35.34,31.18,55.11l.05.13c.54,1.38,1.13,3.04,1.74,4.8,2.96,8.58,6.38,20.14,6.42,20.12,1.56,6.27,3.03,12.8,4.21,17.55,7.82-1.43,16.48-4.27,24.37-6.17-1.26-6.11-4.32-20.83-7.02-28.83"/>
  </g>
  <g>
    <path class="cls-2" d="M818.76,180.06l4.35-1.56c1.72,4.51,6.06,6.39,10.25,6.39,5.53,0,8.26-2.63,8.26-6.12,0-9.5-22.06-4.13-22.06-18.68,0-5.8,4.88-9.77,12.72-9.77,6.28,0,11.32,2.74,13.31,8.37l-4.35,1.56c-1.56-4.19-5.21-5.85-8.96-5.85-5.15,0-7.94,2.52-7.94,5.69,0,9.34,22.06,3.97,22.06,18.68,0,6.23-5.04,10.2-13.04,10.2-6.71,0-12.45-2.9-14.6-8.91Z"/>
    <path class="cls-2" d="M876.29,176.41h-20.13c.48,5.21,3.6,8.53,8.21,8.53,3.11,0,5.42-1.34,7.03-4.56l4.29,1.56c-1.93,4.67-5.96,7.03-11.32,7.03-8.16,0-13.15-6.23-13.15-14.22s4.94-14.22,13.09-14.22c7.19,0,12.13,4.99,12.13,13.52,0,.8-.05,1.66-.16,2.36ZM856.22,172.55h15.62c-.43-5.1-3.38-8-7.51-8-4.45,0-7.46,3.06-8.1,8Z"/>
    <path class="cls-2" d="M882.36,192.3l4.4-1.61c1.13,3.33,3.92,4.99,8.1,4.99,4.51,0,7.35-2.47,7.35-7.19v-5.69h-.38c-1.88,3.22-4.83,5.1-9.02,5.1-6.98,0-11.54-5.47-11.54-13.68s4.56-13.68,11.54-13.68c4.13,0,7.14,1.88,9.02,5.1h.38l.54-4.56h4.56c-.27,4.88-.27,9.34-.27,14.06v13.53c0,6.65-4.4,11.05-12.18,11.05-6.17,0-10.84-2.68-12.51-7.41ZM902.22,174.16c0-5.53-3.11-9.34-8.05-9.34s-8.05,3.86-8.05,9.39,3.11,9.39,8.05,9.39,8.05-3.92,8.05-9.45Z"/>
    <path class="cls-2" d="M914.3,177.16v-16.1h4.83v15.83c0,5.21,2.42,7.78,6.6,7.78,4.88,0,8.16-3.81,8.16-8.59v-15.03h4.83v12.77c0,4.88,0,9.71.27,14.6h-4.56l-.54-4.56h-.38c-1.93,3.27-5.31,5.1-9.07,5.1-6.28,0-10.14-3.76-10.14-11.81Z"/>
    <path class="cls-2" d="M962.07,160.58v4.56c-.86-.05-1.29-.05-2.04-.05-4.29,0-8.96,2.63-8.96,10.79v12.56h-4.83v-12.77c0-4.88,0-9.71-.27-14.6h4.56l.64,5.37h.32c1.61-3.86,4.62-5.9,8.43-5.9.75,0,1.23,0,2.15.05Z"/>
    <path class="cls-2" d="M965.56,174.75c0-8,4.99-14.22,13.15-14.22s13.15,6.22,13.15,14.22-4.99,14.22-13.15,14.22-13.15-6.23-13.15-14.22ZM987.03,174.75c0-6.01-3.33-9.93-8.32-9.93s-8.32,3.92-8.32,9.93,3.33,9.93,8.32,9.93,8.32-3.92,8.32-9.93Z"/>
    <path class="cls-2" d="M996.7,181.94l4.08-1.45c1.07,3.38,4.35,4.72,7.3,4.72,3.54,0,5.42-1.66,5.42-3.97,0-6.44-16.15-1.99-16.15-13.26,0-4.35,3.76-7.46,9.82-7.46,4.88,0,9.02,2.09,10.36,6.49l-4.08,1.45c-1.02-3-3.54-4.19-6.28-4.19-3.43,0-5.15,1.66-5.15,3.7,0,6.55,16.15,2.09,16.15,13.26,0,4.67-4.03,7.73-10.09,7.73-4.88,0-9.82-1.93-11.38-7.03Z"/>
  </g>
  <g>
    <polygon class="cls-2" points="348.67 53.67 336.57 53.67 336.56 53.7 336.56 53.7 336.56 53.71 308.54 120.33 280.51 53.67 279.04 53.67 268.41 53.67 268.21 53.67 268.21 71.63 268.21 74.09 268.21 141.03 280.51 141.03 280.51 82.44 302.49 134.71 305.09 140.9 311.98 140.9 314.58 134.71 336.56 82.47 336.56 141.03 348.85 141.03 348.85 53.7 348.66 53.7 348.67 53.67"/>
    <path class="cls-2" d="M394,53.7c-11.16,29.11-22.31,58.23-33.47,87.34h13.06l9.64-25.17h34.57l9.64,25.17h13.05l-33.43-87.34h-13.06ZM387.49,104.73c4.34-11.35,8.68-22.7,13.02-34.04l13.03,34.04h-26.05Z"/>
    <path class="cls-2" d="M564,53.7c-11.16,29.11-22.31,58.23-33.47,87.34h13.06l9.64-25.17h34.57l9.64,25.17h13.05l-33.43-87.34h-13.06ZM557.48,104.73c4.34-11.35,8.68-22.7,13.02-34.04l13.03,34.04h-26.05Z"/>
    <path class="cls-2" d="M523.17,79.29c-2.08-5.36-5.21-9.97-9.52-13.99-4.31-3.87-9.38-6.84-15.03-8.78-5.65-1.94-11.9-2.83-19.04-2.83h-13.24v-.02h-12.35v87.36h26.33c7.14,0,13.54-1.04,19.2-2.98,5.65-2.08,10.56-5.06,14.73-9.22,8.03-8.18,12.2-18.75,12.2-31.54,0-6.69-1.04-12.65-3.27-18h0ZM504.12,120.95h0c-6.25,5.8-14.73,8.78-25.44,8.78h-12.35v-64.87h12.65c10.71,0,19.04,2.98,25.29,8.93,6.25,6.1,9.37,13.84,9.37,23.51s-3.12,17.7-9.52,23.66Z"/>
    <polygon class="cls-2" points="631.05 53.7 618.7 53.7 618.7 123.1 628.53 141.03 667.05 141.03 667.05 129.73 631.05 129.73 631.05 53.7"/>
    <path class="cls-2" d="M749.91,65.45c-8.92-8.48-19.94-12.8-32.73-12.8s-24.25,4.32-33.03,12.95c-8.78,8.48-13.24,19.19-13.24,31.99s4.46,23.36,13.39,31.99c8.78,8.48,19.64,12.8,32.88,12.8s23.81-4.31,32.73-12.94c8.93-8.63,13.39-19.34,13.39-31.84s-4.46-23.36-13.39-32.14h0ZM740.69,120.8c-6.55,6.55-14.28,9.67-23.51,9.67s-17.41-3.12-23.8-9.67c-6.4-6.4-9.67-14.14-9.67-23.21s3.27-16.96,9.67-23.36c6.54-6.4,14.43-9.67,23.8-9.67s16.96,3.27,23.51,9.67c6.55,6.55,9.82,14.28,9.82,23.36s-3.27,16.66-9.82,23.21Z"/>
    <polygon class="cls-2" points="774.45 64.83 828.87 64.83 771.33 127.31 771.33 141.03 773.04 141.03 773.76 141.03 783.98 141.03 789.82 141.03 840.96 141.03 840.96 129.9 789.82 129.9 784.01 129.9 840.96 68.05 840.96 53.7 774.45 53.7 774.45 64.83"/>
    <polygon class="cls-2" points="854.19 64.83 908.61 64.83 851.07 127.31 851.07 141.03 852.79 141.03 853.5 141.03 863.72 141.03 869.56 141.03 920.7 141.03 920.7 129.9 869.56 129.9 863.75 129.9 920.7 68.05 920.7 53.7 854.19 53.7 854.19 64.83"/>
    <path class="cls-2" d="M1009.82,65.45h0c-8.92-8.48-19.94-12.79-32.73-12.79s-24.25,4.32-33.03,12.95c-8.78,8.48-13.24,19.19-13.24,31.99s4.46,23.36,13.39,31.99c8.78,8.48,19.64,12.8,32.88,12.8s23.81-4.31,32.73-12.94c8.93-8.63,13.39-19.34,13.39-31.84s-4.46-23.36-13.39-32.14ZM1000.6,120.8c-6.55,6.55-14.28,9.67-23.51,9.67s-17.41-3.12-23.8-9.67c-6.4-6.4-9.67-14.14-9.67-23.21s3.27-16.96,9.67-23.36c6.54-6.4,14.43-9.67,23.8-9.67s16.96,3.27,23.51,9.67c6.55,6.55,9.82,14.28,9.82,23.36s-3.27,16.66-9.82,23.21Z"/>
  </g>
</svg>